# xmcd
# 
# Track frame offsets:
#     150
#     16565
#     33969
#     48422
#     63627
#     84261
#     98932
#     115066
#     131842
#     147656
#     168577
#     188723
#     202818
# 
# Disc length: 2898
# 
# Revision: 0
# Processed by: cddbd v1.5.2PL0 Copyright (c) Steve Scherf et al.
# Submitted via: fre:ac v1.0.31
# 
DISCID=ac0b500d
DTITLE=Various Artist - Papa Loves Dance
DYEAR=2016
DGENRE=Disco
TTITLE0=PapaD - Dolce Vita
TTITLE1=PapaD - I Like Chopin
TTITLE2=PapaD - Sunshine Reggae
TTITLE3=PapaD - Tora Tora Tora
TTITLE4=PapaD - Captain Of Her Heart
TTITLE5=Papa D - Out Of This World
TTITLE6=PapaD - Words
TTITLE7=PapaD - Only You
TTITLE8=PapaD - Neverending Story
TTITLE9=PapaD - Shattered Dreams
TTITLE10=PapaD - Romantic Funk
TTITLE11=PapaD - 10 w skali Beauforta
TTITLE12=PapaD - Rajony Kvartaly
EXTD=
EXTT0=
EXTT1=
EXTT2=
EXTT3=
EXTT4=
EXTT5=
EXTT6=
EXTT7=
EXTT8=
EXTT9=
EXTT10=
EXTT11=
EXTT12=
PLAYORDER=
